<svg width="14" height="14" viewBox="0 0 14 14" fill="none" xmlns="http://www.w3.org/2000/svg">
<path d="M7.33325 0.5C3.74919 0.5 0.833252 3.41594 0.833252 7C0.833252 10.5841 3.74919 13.5 7.33325 13.5C10.9173 13.5 13.8333 10.5841 13.8333 7C13.8333 3.41594 10.9173 0.5 7.33325 0.5ZM10.7161 4.82156L6.51606 9.82156C6.46999 9.87644 6.41267 9.92077 6.34797 9.95156C6.28327 9.98234 6.21271 9.99886 6.14106 10H6.13263C6.06254 9.99997 5.99325 9.98522 5.92924 9.95668C5.86523 9.92815 5.80793 9.88648 5.76106 9.83438L3.96106 7.83438C3.91535 7.78589 3.87979 7.72876 3.85647 7.66633C3.83316 7.60391 3.82255 7.53745 3.82528 7.47087C3.82802 7.40429 3.84403 7.33892 3.87239 7.27862C3.90074 7.21831 3.94087 7.16429 3.9904 7.11971C4.03993 7.07514 4.09788 7.04091 4.16083 7.01905C4.22378 6.99719 4.29046 6.98813 4.35696 6.9924C4.42346 6.99668 4.48843 7.01421 4.54806 7.04396C4.60769 7.0737 4.66078 7.11507 4.70419 7.16562L6.1195 8.73812L9.95044 4.17844C10.0364 4.07909 10.1579 4.01754 10.2889 4.00711C10.4198 3.99668 10.5496 4.03819 10.6502 4.12268C10.7508 4.20716 10.8141 4.32784 10.8264 4.45862C10.8387 4.5894 10.7991 4.71977 10.7161 4.82156Z" fill="#009721"/>
</svg>
