<svg width="31" height="31" viewBox="0 0 31 31" xmlns="http://www.w3.org/2000/svg">
<path d="M27.5392 0.0303955H3.53918C1.88918 0.0303955 0.554185 1.3804 0.554185 3.0304L0.539185 30.0304L6.53918 24.0304H27.5392C29.1892 24.0304 30.5392 22.6804 30.5392 21.0304V3.0304C30.5392 1.3804 29.1892 0.0303955 27.5392 0.0303955ZM9.53918 18.0304H6.53918V15.0304H9.53918V18.0304ZM9.53918 13.5304H6.53918V10.5304H9.53918V13.5304ZM9.53918 9.0304H6.53918V6.0304H9.53918V9.0304ZM20.0392 18.0304H12.5392V15.0304H20.0392V18.0304ZM24.5392 13.5304H12.5392V10.5304H24.5392V13.5304ZM24.5392 9.0304H12.5392V6.0304H24.5392V9.0304Z"  />
</svg>
