<svg width="13" height="13" viewBox="0 0 13 13" fill="none" xmlns="http://www.w3.org/2000/svg">
<path d="M6.5 0C2.91594 0 0 2.91594 0 6.5C0 10.0841 2.91594 13 6.5 13C10.0841 13 13 10.0841 13 6.5C13 2.91594 10.0841 0 6.5 0ZM6.5 9.99719C6.37639 9.99719 6.25555 9.96053 6.15277 9.89186C6.04999 9.82318 5.96988 9.72557 5.92258 9.61136C5.87527 9.49716 5.86289 9.37149 5.88701 9.25026C5.91112 9.12902 5.97065 9.01765 6.05806 8.93025C6.14547 8.84284 6.25683 8.78331 6.37807 8.7592C6.49931 8.73508 6.62497 8.74746 6.73918 8.79476C6.85338 8.84207 6.95099 8.92218 7.01967 9.02496C7.08834 9.12774 7.125 9.24857 7.125 9.37219C7.125 9.53795 7.05915 9.69692 6.94194 9.81413C6.82473 9.93134 6.66576 9.99719 6.5 9.99719ZM7.17875 3.71125L6.99938 7.52375C6.99938 7.65636 6.9467 7.78353 6.85293 7.8773C6.75916 7.97107 6.63198 8.02375 6.49937 8.02375C6.36677 8.02375 6.23959 7.97107 6.14582 7.8773C6.05205 7.78353 5.99937 7.65636 5.99937 7.52375L5.82 3.71313V3.71156C5.81607 3.61998 5.83071 3.52854 5.86305 3.44277C5.89539 3.35699 5.94475 3.27865 6.00817 3.21245C6.07158 3.14625 6.14774 3.09358 6.23205 3.05759C6.31636 3.0216 6.40708 3.00305 6.49875 3.00305C6.59042 3.00305 6.68114 3.0216 6.76545 3.05759C6.84976 3.09358 6.92592 3.14625 6.98933 3.21245C7.05275 3.27865 7.10211 3.35699 7.13445 3.44277C7.16679 3.52854 7.18143 3.61998 7.1775 3.71156L7.17875 3.71125Z" fill="#C80000"/>
</svg>
