<svg width="20" height="20" viewBox="0 0 20 20" fill="none" xmlns="http://www.w3.org/2000/svg">
<path d="M10.2238 6.66671C11.1191 6.66671 11.8516 5.91671 11.8516 5.00004C11.8516 4.08337 11.1191 3.33337 10.2238 3.33337C9.32847 3.33337 8.59595 4.08337 8.59595 5.00004C8.59595 5.91671 9.32847 6.66671 10.2238 6.66671ZM10.2238 8.33337C9.32847 8.33337 8.59595 9.08337 8.59595 10C8.59595 10.9167 9.32847 11.6667 10.2238 11.6667C11.1191 11.6667 11.8516 10.9167 11.8516 10C11.8516 9.08337 11.1191 8.33337 10.2238 8.33337ZM10.2238 13.3334C9.32847 13.3334 8.59595 14.0834 8.59595 15C8.59595 15.9167 9.32847 16.6667 10.2238 16.6667C11.1191 16.6667 11.8516 15.9167 11.8516 15C11.8516 14.0834 11.1191 13.3334 10.2238 13.3334Z" fill="#909598"/>
</svg>
