<svg width="14" height="14" viewBox="0 0 14 14" fill="none" xmlns="http://www.w3.org/2000/svg">
<path d="M12.7324 8.77723L13.3649 9.18031L13.3649 9.18031L12.7324 8.77723ZM10.8576 12.5397C11.1974 12.3027 11.2807 11.8352 11.0437 11.4955C10.8067 11.1557 10.3392 11.0724 9.9995 11.3094L10.8576 12.5397ZM7 8.82141C5.99405 8.82141 5.17857 8.00592 5.17857 6.99998H3.67857C3.67857 8.83435 5.16563 10.3214 7 10.3214V8.82141ZM8.82143 6.99998C8.82143 8.00592 8.00595 8.82141 7 8.82141V10.3214C8.83437 10.3214 10.3214 8.83435 10.3214 6.99998H8.82143ZM7 5.17855C8.00595 5.17855 8.82143 5.99403 8.82143 6.99998H10.3214C10.3214 5.1656 8.83437 3.67855 7 3.67855V5.17855ZM7 3.67855C5.16563 3.67855 3.67857 5.1656 3.67857 6.99998H5.17857C5.17857 5.99403 5.99405 5.17855 7 5.17855V3.67855ZM8.82143 6.99998V7.85714H10.3214V6.99998H8.82143ZM13.75 7.85714V7H12.25V7.85714H13.75ZM0.25 7C0.25 10.7279 3.27208 13.75 7 13.75V12.25C4.10051 12.25 1.75 9.8995 1.75 7H0.25ZM13.75 7C13.75 3.27208 10.7279 0.25 7 0.25V1.75C9.8995 1.75 12.25 4.10051 12.25 7H13.75ZM11.2857 10.3214C12.1608 10.3214 12.9287 9.86477 13.3649 9.18031L12.0999 8.37414C11.9275 8.64467 11.627 8.82143 11.2857 8.82143V10.3214ZM13.3649 9.18031C13.6088 8.79763 13.75 8.34273 13.75 7.85714H12.25C12.25 8.04873 12.1949 8.22516 12.0999 8.37414L13.3649 9.18031ZM7 0.25C3.27208 0.25 0.25 3.27208 0.25 7H1.75C1.75 4.10051 4.10051 1.75 7 1.75V0.25ZM8.82143 7.85714C8.82143 9.21813 9.92473 10.3214 11.2857 10.3214V8.82143C10.7532 8.82143 10.3214 8.3897 10.3214 7.85714H8.82143ZM7 13.75C8.43314 13.75 9.76401 13.3025 10.8576 12.5397L9.9995 11.3094C9.14942 11.9024 8.11643 12.25 7 12.25V13.75Z" fill="#98989E"/>
</svg>
