<svg width="23" height="23" viewBox="0 0 64 64" fill="none" xmlns="http://www.w3.org/2000/svg">
<path d="M47.5 16C47.5 24.5639 40.5639 31.5 32 31.5C23.4361 31.5 16.5 24.5639 16.5 16C16.5 7.43614 23.4361 0.5 32 0.5C40.5639 0.5 47.5 7.43614 47.5 16ZM0.5 56C0.5 53.5236 1.73654 51.3175 3.83724 49.3787C5.94134 47.4367 8.87895 45.7969 12.1809 44.4741C18.7857 41.8283 26.7225 40.5 32 40.5C37.2775 40.5 45.2143 41.8283 51.8191 44.4741C55.121 45.7969 58.0587 47.4367 60.1628 49.3787C62.2635 51.3175 63.5 53.5236 63.5 56V63.5H0.5V56Z" />
</svg>
