<svg width="16" height="16" viewBox="0 0 16 16" fill="none" xmlns="http://www.w3.org/2000/svg">
<path d="M13.3334 5.33334H11.3334V4.14C11.3334 2.4 10.06 0.846668 8.32669 0.680002C6.34002 0.493335 4.66669 2.05333 4.66669 4V5.33334H2.66669V14.6667H13.3334V5.33334ZM8.00002 11.3333C7.26669 11.3333 6.66669 10.7333 6.66669 10C6.66669 9.26667 7.26669 8.66667 8.00002 8.66667C8.73335 8.66667 9.33335 9.26667 9.33335 10C9.33335 10.7333 8.73335 11.3333 8.00002 11.3333ZM6.00002 5.33334V4C6.00002 2.89334 6.89335 2 8.00002 2C9.10669 2 10 2.89334 10 4V5.33334H6.00002Z" fill="#98989E"/>
</svg>
