<svg width="25" height="25" viewBox="0 0 70 70" fill="none" xmlns="http://www.w3.org/2000/svg">
<path d="M46.4929 44.3599L46.6382 44.5H46.84H49.7926L69.2532 63.9996L63.9996 69.2532L44.5 49.7926V46.84V46.6382L44.3599 46.4929L43.2799 45.3729L42.9521 45.033L42.5941 45.3408C38.1212 49.186 32.3157 51.5 26 51.5C11.9161 51.5 0.5 40.0839 0.5 26C0.5 11.9161 11.9161 0.5 26 0.5C40.0839 0.5 51.5 11.9161 51.5 26C51.5 32.3157 49.186 38.1212 45.3408 42.5941L45.033 42.9521L45.3729 43.2799L46.4929 44.3599ZM7.5 26C7.5 36.2361 15.7639 44.5 26 44.5C36.2361 44.5 44.5 36.2361 44.5 26C44.5 15.7639 36.2361 7.5 26 7.5C15.7639 7.5 7.5 15.7639 7.5 26Z" fill="white" stroke="#404040"/>
</svg>
